<?xml version="1.0" standalone="no"?><!DOCTYPE svg PUBLIC "-//W3C//DTD SVG 1.1//EN" "http://www.w3.org/Graphics/SVG/1.1/DTD/svg11.dtd" ><svg xmlns="http://www.w3.org/2000/svg"><metadata></metadata><defs><font id="Optima Regular; 6.1d4e1; 2010-09-08" horiz-adv-x="1000"><font-face font-family="Optima" font-weight="400" font-stretch="normal" units-per-em="1000" panose-1="2 0 5 3 6 0 0 2 0 4" ascent="919" descent="-268" x-height="4" bbox="-27 -268 1000 755" underline-thickness="50" underline-position="-100" unicode-range="U+002b-2026" /><missing-glyph horiz-adv-x="364" d="M33 0 l0 666 l265 0 l0 -666 l-265 0 ZM66 33 l199 0 l0 600 l-199 0 l0 -600 Z" /><glyph glyph-name="plus" unicode="+" d="M50 279 l0 -52 l227 0 l0 -227 l52 0 l0 227 l227 0 l0 52 l-227 0 l0 227 l-52 0 l0 -227 l-227 0 Z" /><glyph glyph-name="comma" unicode="," d="M107 75 l-77 -240 l18 -7 l125 209 q5 10 10 20 q5 10 5 22 q0 18 -12.5 26 q-12.5 8 -24.5 8 q-20 0 -30 -12.5 q-10 -12.5 -14 -25.5 Z" /><glyph glyph-name="hyphen" unicode="-" d="M42 262 l0 -62 l249 0 l0 62 l-249 0 Z" /><glyph glyph-name="period" unicode="." d="M82 45 q0 -23 17 -38.5 q17 -15.5 40 -15.5 q23 0 40 15.5 q17 15.5 17 38.5 q0 23 -17 40 q-17 17 -40 17 q-23 0 -40 -17 q-17 -17 -17 -40 Z" /><glyph glyph-name="zero" unicode="0" d="M44 328 q0 -71 9.5 -133.5 q9.5 -62.5 35.5 -109 q26 -46.5 71.5 -72.5 q45.5 -26 117.5 -26 q61 0 105 27 q44 27 72.5 74 q28.5 47 42.5 109 q14 62 14 131 q0 71 -9.5 133.5 q-9.5 62.5 -35.5 109 q-26 46.5 -71.5 74 q-45.5 27.5 -117.5 27.5 q-65 0 -110 -27.5 q-45 -27.5 -72.5 -74 q-27.5 -46.5 -39.5 -109 q-12 -62.5 -12 -133.5 ZM126 328 q0 71 7.5 128.5 q7.5 57.5 25.5 98.5 q18 41 47 63 q29 22 72 22 q43 0 72 -24 q29 -24 47 -66 q18 -42 25.5 -99 q7.5 -57 7.5 -123 q0 -66 -7.5 -123 q-7.5 -57 -25.5 -99 q-18 -42 -47 -66 q-29 -24 -72 -24 q-43 0 -72 24 q-29 24 -47 66 q-18 42 -25.5 99 q-7.5 57 -7.5 123 Z" /><glyph glyph-name="one" unicode="1" d="M243 608 l0 -356 q0 -66 -1.5 -129 q-1.5 -63 -6.5 -125 q12 2 23.5 2 q11.5 0 23.5 0 q12 0 23.5 0 q11.5 0 23.5 -2 q-4 61 -6 124.5 q-2 63.5 -2 129.5 l0 167 q0 66 2 130.5 q2 64.5 6 130.5 l-7 5 q-52 -26 -111.5 -53.5 q-59.5 -27.5 -116.5 -50.5 l0 -7 q19 -12 30 -32 l119 66 Z" /><glyph glyph-name="two" unicode="2" d="M64 573 l35 -49 l7 2 q3 15 11 34 q8 19 23 35.5 q15 16.5 38 28 q23 11.5 55 11.5 q45 0 78.5 -35.5 q33.5 -35.5 33.5 -109.5 q0 -34 -4.5 -63.5 q-4.5 -29.5 -17.5 -60 q-13 -30.5 -35.5 -64.5 q-22.5 -34 -58.5 -76 q-36 -42 -87.5 -94.5 q-51.5 -52.5 -121.5 -121.5 l0 -12 q54 2 107.5 2 q53.5 0 107.5 0 q54 0 107 0 q53 0 107 -2 q-5 20 -5 34 q0 15 5 37 q-42 -3 -97.5 -5.5 q-55.5 -2.5 -127.5 -2.5 l-95 0 q16 22 39 48 q23 26 48.5 52.5 q25.5 26.5 50.5 51.5 q25 25 44 44 q32 32 55.5 60.5 q23.5 28.5 39 56.5 q15.5 28 23.5 57.5 q8 29.5 8 63.5 q0 47 -15 80 q-15 33 -40.5 55 q-25.5 22 -60.5 32 q-35 10 -74 10 q-63 0 -107 -24 q-44 -24 -76 -75 Z" /><glyph glyph-name="three" unicode="3" d="M79 612 l23 -54 l7 2 q11 31 40.5 55.5 q29.5 24.5 71.5 24.5 q20 0 39 -7 q19 -7 34 -22 q15 -15 24.5 -38.5 q9.5 -23.5 9.5 -55.5 q0 -25 -4.5 -52 q-4.5 -27 -17 -49.5 q-12.5 -22.5 -34.5 -37 q-22 -14.5 -57 -14.5 q-25 0 -45 4 q1 -5 1.5 -10.5 q0.5 -5.5 0.5 -10.5 q0 -5 -0.5 -10.5 q-0.5 -5.5 -1.5 -10.5 q9 2 21.5 4 q12.5 2 23.5 2 q31 0 57 -8 q26 -8 44.5 -25.5 q18.5 -17.5 29 -46 q10.5 -28.5 10.5 -69.5 q0 -37 -11 -68 q-11 -31 -32 -53 q-21 -22 -50.5 -34 q-29.5 -12 -67.5 -12 q-24 0 -44.5 6.5 q-20.5 6.5 -38 16.5 q-17.5 10 -30.5 22 q-13 12 -22 22 l-6 -4 q-1 -15 -4.5 -33.5 q-3.5 -18.5 -7.5 -26.5 q27 -13 63 -22.5 q36 -9.5 88 -9.5 q57 0 104 15 q47 15 80.5 43 q33.5 28 52 66.5 q18.5 38.5 18.5 84.5 q0 45 -16.5 74 q-16.5 29 -41.5 46.5 q-25 17.5 -54 25 q-29 7.5 -55 9.5 l0 6 q22 6 46 19 q24 13 43.5 33.5 q19.5 20.5 32.5 49 q13 28.5 13 64.5 q0 39 -15 67 q-15 28 -41 46 q-26 18 -61 27 q-35 9 -74 9 q-55 0 -90.5 -20 q-35.5 -20 -55.5 -40 Z" /><glyph glyph-name="four" unicode="4" d="M333 574 l0 -336 l-233 0 q17 29 47.5 74 q30.5 45 64.5 93.5 q34 48.5 66 94 q32 45.5 53 74.5 l2 0 ZM21 197 l0 -18 q21 1 64 2.5 q43 1.5 90.5 2.5 q47.5 1 91 1.5 q43.5 0.5 66.5 0.5 l0 -42 q0 -38 -3 -79 q-3 -41 -5 -67 q20 2 44 2 q24 0 44 -2 q-2 24 -4 65.5 q-2 41.5 -2 80.5 l0 42 q29 0 55 -1.5 q26 -1.5 43 -4.5 q-5 20 -5 33 q0 13 5 33 q-17 -3 -43 -5.5 q-26 -2.5 -55 -2.5 l0 110 q0 87 2 169.5 q2 82.5 5 148.5 q-18 -5 -32 -5 q-14 0 -34 5 q-24 -38 -61.5 -92.5 q-37.5 -54.5 -82 -117.5 q-44.5 -63 -92 -130 q-47.5 -67 -91.5 -129 Z" /><glyph glyph-name="six" unicode="6" d="M417 189 q0 -38 -9 -70 q-9 -32 -26 -55 q-17 -23 -41.5 -35.5 q-24.5 -12.5 -56.5 -12.5 q-28 0 -52.5 12.5 q-24.5 12.5 -42.5 35.5 q-18 23 -28 55 q-10 32 -10 70 q0 38 11 69.5 q11 31.5 29.5 54.5 q18.5 23 44 35.5 q25.5 12.5 54.5 12.5 q64 0 95.5 -48 q31.5 -48 31.5 -124 ZM417 637 l-15 32 q-8 2 -16.5 2.5 q-8.5 0.5 -25.5 0.5 q-72 1 -127.5 -30 q-55.5 -31 -93 -85.5 q-37.5 -54.5 -57 -128 q-19.5 -73.5 -19.5 -156.5 q0 -79 18 -133.5 q18 -54.5 48.5 -88.5 q30.5 -34 70.5 -48.5 q40 -14.5 83 -14.5 q51 0 92 15.5 q41 15.5 70 45 q29 29.5 44.5 71 q15.5 41.5 15.5 91.5 q0 57 -21 93.5 q-21 36.5 -51.5 57.5 q-30.5 21 -64.5 29 q-34 8 -60 8 q-33 0 -58.5 -9 q-25.5 -9 -45 -23 q-19.5 -14 -33.5 -31 q-14 -17 -24 -34 l-2 0 q0 31 5 67.5 q5 36.5 16 74.5 q11 38 28 73.5 q17 35.5 41 63 q24 27.5 55 44 q31 16.5 70 16.5 q17 0 29 -2 q12 -2 23 -5 l5 4 Z" /><glyph glyph-name="seven" unicode="7" d="M507 641 l0 16 q-26 0 -49 -0.5 q-23 -0.5 -54 -0.5 l-47 0 q-38 0 -78.5 1 q-40.5 1 -63.5 1 q-28 1 -60.5 3 q-32.5 2 -74.5 5 q4 -20 4 -44 q0 -25 -4 -45 q129 8 216.5 9 q87.5 1 132.5 1 q-26 -46 -67 -116 q-41 -70 -89 -150.5 q-48 -80.5 -99.5 -165 q-51.5 -84.5 -98.5 -157.5 q17 2 36 2 q22 0 38 -2 q82 160 174.5 324.5 q92.5 164.5 183.5 318.5 Z" /><glyph glyph-name="eight" unicode="8" d="M413 184 q0 -37 -9.5 -67.5 q-9.5 -30.5 -27 -53 q-17.5 -22.5 -42.5 -35 q-25 -12.5 -56 -12.5 q-31 0 -56 12.5 q-25 12.5 -42.5 35 q-17.5 22.5 -27 53 q-9.5 30.5 -9.5 67.5 q0 37 9.5 67.5 q9.5 30.5 27 53 q17.5 22.5 42.5 35 q25 12.5 56 12.5 q31 0 56 -12.5 q25 -12.5 42.5 -35 q17.5 -22.5 27 -53 q9.5 -30.5 9.5 -67.5 ZM387 512 q0 -25 -6 -48.5 q-6 -23.5 -19.5 -41 q-13.5 -17.5 -33.5 -28 q-20 -10.5 -49 -10.5 q-28 0 -48.5 10.5 q-20.5 10.5 -33.5 28 q-13 17.5 -19 41 q-6 23.5 -6 48.5 q0 26 6 49 q6 23 19 40.5 q13 17.5 33.5 28 q20.5 10.5 48.5 10.5 q29 0 49 -10.5 q20 -10.5 33.5 -28 q13.5 -17.5 19.5 -40.5 q6 -23 6 -49 ZM55 179 q0 -47 17 -83 q17 -36 47 -61 q30 -25 71 -36.5 q41 -11.5 88 -11.5 q46 0 86.5 14 q40.5 14 71 42.5 q30.5 28.5 48 68.5 q17.5 40 17.5 90 q0 46 -16 77 q-16 31 -38.5 50.5 q-22.5 19.5 -47.5 29 q-25 9.5 -42 12.5 l0 7 q55 18 83.5 58.5 q28.5 40.5 28.5 88.5 q0 29 -11.5 55.5 q-11.5 26.5 -34.5 46.5 q-23 20 -59 32.5 q-36 12.5 -86 12.5 q-43 0 -77.5 -13 q-34.5 -13 -59 -35 q-24.5 -22 -38 -50.5 q-13.5 -28.5 -13.5 -60.5 q0 -28 10 -52 q10 -24 26 -41.5 q16 -17.5 35.5 -29 q19.5 -11.5 38.5 -15.5 l0 -7 q-78 -26 -111.5 -77 q-33.5 -51 -33.5 -112 Z" /><glyph glyph-name="colon" unicode=":" d="M82 45 q0 -23 17 -38.5 q17 -15.5 40 -15.5 q23 0 40 15.5 q17 15.5 17 38.5 q0 23 -17 40 q-17 17 -40 17 q-23 0 -40 -17 q-17 -17 -17 -40 ZM82 411 q0 -23 17 -40 q17 -17 40 -17 q23 0 40 17 q17 17 17 40 q0 23 -17 40 q-17 17 -40 17 q-23 0 -40 -17 q-17 -17 -17 -40 Z" /><glyph glyph-name="A" unicode="A" d="M207 309 q26 0 54 -1 q28 -1 54 -1 q28 0 56 0.5 q28 0.5 56 1.5 l-111 254 l-109 -254 ZM650 -2 q-14 2 -26.5 2 q-12.5 0 -26.5 0 q-14 0 -26.5 0 q-12.5 0 -26.5 -2 q-7 23 -19 55.5 q-12 32.5 -26.5 68 q-14.5 35.5 -29.5 72 q-15 36.5 -28 69.5 q-32 1 -65 1.5 q-33 0.5 -66 0.5 q-31 0 -61 -0.5 q-30 -0.5 -61 -1.5 q-32 -78 -58 -148.5 q-26 -70.5 -39 -116.5 q-17 2 -37 2 q-20 0 -37 -2 q81 175 158 348 q77 173 155 352 l19 0 q24 -58 52 -125.5 q28 -67.5 57 -136.5 q29 -69 58 -137 q29 -68 54.5 -126.5 q25.5 -58.5 46 -104.5 q20.5 -46 33.5 -70 Z" /><glyph glyph-name="B" unicode="B" d="M180 239 l0 102 l45 0 q50 0 90.5 -6 q40.5 -6 69.5 -21.5 q29 -15.5 44.5 -43 q15.5 -27.5 15.5 -70.5 q0 -40 -13 -71.5 q-13 -31.5 -35 -53 q-22 -21.5 -51.5 -32.5 q-29.5 -11 -61.5 -11 q-27 0 -53 1.5 q-26 1.5 -45 3.5 q-2 51 -4 101 q-2 50 -2 101 ZM234 378 l-54 0 l0 75 q0 48 2 95 q2 47 4 95 q14 2 32 3.5 q18 1.5 44 1.5 q29 0 58 -4.5 q29 -4.5 52 -18 q23 -13.5 38 -38 q15 -24.5 15 -65.5 q0 -42 -16.5 -69.5 q-16.5 -27.5 -43.5 -44 q-27 -16.5 -61.5 -23.5 q-34.5 -7 -69.5 -7 ZM98 427 l0 -172 q0 -66 -2.5 -129.5 q-2.5 -63.5 -5.5 -127.5 q24 2 48.5 2 q24.5 0 48.5 0 q24 0 48.5 -1 q24.5 -1 48.5 -1 q44 0 88.5 9.5 q44.5 9.5 81.5 33 q37 23.5 60 61.5 q23 38 23 94 q0 86 -51.5 125 q-51.5 39 -140.5 43 l0 2 q75 17 121.5 59 q46.5 42 46.5 116 q0 42 -17 70 q-17 28 -46 44.5 q-29 16.5 -67 23 q-38 6.5 -81 6.5 q-26 0 -53 -2.5 q-27 -2.5 -53 -2.5 q-26 0 -53 1.5 q-27 1.5 -53 3.5 q3 -64 5.5 -128 q2.5 -64 2.5 -130 Z" /><glyph glyph-name="C" unicode="C" d="M615 39 l9 59 l-4 4 q-14 -11 -34.5 -25.5 q-20.5 -14.5 -46 -27 q-25.5 -12.5 -56 -21.5 q-30.5 -9 -66.5 -9 q-59 0 -109.5 19 q-50.5 19 -88 58.5 q-37.5 39.5 -58.5 100 q-21 60.5 -21 143.5 q0 83 21 143.5 q21 60.5 58.5 100 q37.5 39.5 88 58.5 q50.5 19 109.5 19 q36 0 66 -9.5 q30 -9.5 54 -23.5 q24 -14 42 -29 q18 -15 28 -27 l6 2 q3 16 8 40 q5 24 13 38 q-42 19 -96.5 32.5 q-54.5 13.5 -120.5 13.5 q-83 0 -152 -24 q-69 -24 -118.5 -70 q-49.5 -46 -77 -112.5 q-27.5 -66.5 -27.5 -151.5 q0 -85 27.5 -151.5 q27.5 -66.5 76 -112.5 q48.5 -46 115.5 -68.5 q67 -22.5 146 -22.5 q37 0 71 6 q34 6 61.5 13.5 q27.5 7.5 47 17 q19.5 9.5 28.5 17.5 Z" /><glyph glyph-name="E" unicode="E" d="M98 427 l0 -172 q0 -66 -2.5 -129.5 q-2.5 -63.5 -5.5 -127.5 q46 2 91 2 q45 0 91 0 q46 0 90.5 0 q44.5 0 89.5 -2 q-3 10 -3 26 q0 7 0.5 15.5 q0.5 8.5 2.5 15.5 q-24 -5 -56.5 -7.5 q-32.5 -2.5 -69 -4 q-36.5 -1.5 -74.5 -1.5 q-37 0 -70 0 q-1 19 -1.5 56 q-0.5 37 -0.5 94 l0 60 l0 39 q0 16 0.5 26.5 q0.5 10.5 0.5 19.5 q18 0 48.5 -0.5 q30.5 -0.5 65 -1 q34.5 -0.5 69 -2.5 q34.5 -2 60.5 -5 q-3 15 -3 30 q0 16 3 31 q-22 -2 -46.5 -3.5 q-24.5 -1.5 -53.5 -3 q-29 -1.5 -64 -2.5 q-35 -1 -79 -1 q0 19 -0.5 56 q-0.5 37 -0.5 76 q0 37 1.5 66 q1.5 29 2.5 61 q49 0 84 -1.5 q35 -1.5 64.5 -3.5 q29.5 -2 56 -4 q26.5 -2 58.5 -4 q-3 15 -3 30 q0 15 3 30 q-45 -2 -89 -3.5 q-44 -1.5 -89 -1.5 q-45 0 -89.5 1.5 q-44.5 1.5 -89.5 3.5 q3 -64 5.5 -128 q2.5 -64 2.5 -130 Z" /><glyph glyph-name="F" unicode="F" d="M98 426 l0 -172 q0 -66 -2.5 -130 q-2.5 -64 -5.5 -126 q23 2 49 2 q26 0 49 -2 q-3 62 -5.5 126 q-2.5 64 -2.5 130 l0 85 q32 0 67 0 q35 0 69 -1 q34 -1 65.5 -2.5 q31.5 -1.5 56.5 -4.5 q-4 15 -4 30 q0 15 4 30 q-63 -6 -127.5 -8 q-64.5 -2 -130.5 -2 q0 32 -0.5 61.5 q-0.5 29.5 -0.5 64.5 q0 32 0.5 64 q0.5 32 1.5 67 q24 0 60.5 -1 q36.5 -1 76 -2.5 q39.5 -1.5 77.5 -4 q38 -2.5 65 -5.5 q-3 15 -3 30 q0 15 3 30 q-54 -2 -100 -3.5 q-46 -1.5 -91 -1.5 q-45 0 -89.5 1.5 q-44.5 1.5 -89.5 3.5 q3 -66 5.5 -129.5 q2.5 -63.5 2.5 -129.5 Z" /><glyph glyph-name="G" unicode="G" d="M671 563 l12 0 q2 19 8.5 41 q6.5 22 14.5 36 q-18 9 -41 19 q-23 10 -53.5 19 q-30.5 9 -70 14.5 q-39.5 5.5 -90.5 5.5 q-88 0 -160.5 -24 q-72.5 -24 -123.5 -70 q-51 -46 -79 -112.5 q-28 -66.5 -28 -151.5 q0 -88 27 -155 q27 -67 77 -112 q50 -45 121.5 -66.5 q71.5 -21.5 160.5 -21.5 q29 0 64.5 4.5 q35.5 4.5 71 10 q35.5 5.5 67 14 q31.5 8.5 52.5 16.5 q0 20 -0.5 40.5 q-0.5 20.5 -0.5 40.5 q0 81 1 130.5 q1 49.5 3 72.5 q-10 -3 -21 -4 q-11 -1 -22 -1 q-23 0 -48 5 q2 -32 3.5 -67 q1.5 -35 1.5 -70 q0 -31 -0.5 -61 q-0.5 -30 -1.5 -60 q-13 -8 -31.5 -14 q-18.5 -6 -40 -10 q-21.5 -4 -44.5 -6 q-23 -2 -44 -2 q-70 0 -125.5 22 q-55.5 22 -94 62.5 q-38.5 40.5 -58.5 99.5 q-20 59 -20 132 q0 83 22.5 143.5 q22.5 60.5 62 100 q39.5 39.5 93 58.5 q53.5 19 115.5 19 q38 0 71.5 -8.5 q33.5 -8.5 61 -22 q27.5 -13.5 50 -31.5 q22.5 -18 37.5 -36 Z" /><glyph glyph-name="I" unicode="I" d="M98 426 l0 -172 q0 -66 -2.5 -130 q-2.5 -64 -5.5 -126 q23 2 49 2 q26 0 49 -2 q-3 62 -5.5 126 q-2.5 64 -2.5 130 l0 172 q0 66 2.5 129.5 q2.5 63.5 5.5 129.5 q-13 -2 -25 -3.5 q-12 -1.5 -24 -1.5 q-12 0 -24 1.5 q-12 1.5 -25 3.5 q3 -66 5.5 -129.5 q2.5 -63.5 2.5 -129.5 Z" /><glyph glyph-name="J" unicode="J" d="M-27 -113 l8 -28 q44 0 81.5 16.5 q37.5 16.5 64.5 45.5 q27 29 41.5 66.5 q14.5 37.5 14.5 82.5 q0 36 -0.5 79 q-0.5 43 -1 89.5 q-0.5 46.5 -1 94.5 q-0.5 48 -0.5 93 q0 66 2.5 129.5 q2.5 63.5 5.5 129.5 q-13 -2 -25 -3.5 q-12 -1.5 -24 -1.5 q-12 0 -24 1.5 q-12 1.5 -25 3.5 q3 -66 5.5 -129.5 q2.5 -63.5 2.5 -129.5 l0 -275 q0 -59 -3.5 -107 q-3.5 -48 -16.5 -83 q-13 -35 -38 -54.5 q-25 -19.5 -67 -19.5 Z" /><glyph glyph-name="L" unicode="L" d="M98 426 l0 -172 q0 -66 -2.5 -130 q-2.5 -64 -5.5 -126 q48 2 92.5 2 q44.5 0 92.5 0 q46 0 92 0 q46 0 92 -2 q-5 16 -5 27 q0 12 5 30 q-75 -10 -140 -11.5 q-65 -1.5 -136 -1.5 q-1 73 -2 165.5 q-1 92.5 -1 218.5 q0 66 2.5 129.5 q2.5 63.5 5.5 129.5 q-13 -2 -25 -3.5 q-12 -1.5 -24 -1.5 q-12 0 -24 1.5 q-12 1.5 -25 3.5 q3 -66 5.5 -129.5 q2.5 -63.5 2.5 -129.5 Z" /><glyph glyph-name="M" unicode="M" d="M162 698 l-17 0 q-8 -80 -19 -168.5 q-11 -88.5 -24 -179.5 q-13 -91 -27 -181 q-14 -90 -27 -171 q16 2 35 2 q19 0 35 -2 q0 40 5 102.5 q5 62.5 12 133 q7 70.5 15.5 143 q8.5 72.5 15.5 134.5 l2 0 q66 -132 131.5 -258.5 q65.5 -126.5 125.5 -252.5 l9 0 q60 136 126.5 260.5 q66.5 124.5 135.5 250.5 l2 0 q16 -130 27 -255 q11 -125 22 -258 q12 2 23.5 2 q11.5 0 23.5 0 q12 0 23.5 0 q11.5 0 23.5 -2 q-12 83 -22 167.5 q-10 84.5 -20 171 q-10 86.5 -19.5 176 q-9.5 89.5 -20.5 185.5 l-13 0 q-25 -46 -54 -99 q-29 -53 -58.5 -108 q-29.5 -55 -58 -108.5 q-28.5 -53.5 -53.5 -99.5 q-25 -46 -44 -81.5 q-19 -35.5 -29 -54.5 q-77 141 -147.5 275 q-70.5 134 -139.5 276 Z" /><glyph glyph-name="N" unicode="N" d="M661 -15 l14 0 q0 11 0 33 q0 24 -0.5 56.5 q-0.5 32.5 -1 70 q-0.5 37.5 -1 74.5 q-0.5 37 -0.5 71 q0 35 0 60 q0 29 2 77 q2 48 4.5 98 q2.5 50 5 94 q2.5 44 4.5 66 q-20 -5 -32 -5 q-14 0 -34 5 q5 -88 6.5 -187.5 q1.5 -99.5 1.5 -204.5 l0 -136 q-46 46 -107.5 111.5 q-61.5 65.5 -130 139 q-68.5 73.5 -138 149 q-69.5 75.5 -130.5 141.5 l-16 0 q2 -34 2.5 -103 q0.5 -69 0.5 -165 q0 -33 -1 -75 q-1 -42 -2.5 -86 q-1.5 -44 -4 -88 q-2.5 -44 -4.5 -81.5 q-2 -37.5 -4.5 -64.5 q-2.5 -27 -4.5 -37 q17 2 37 2 q19 0 35 -2 q-1 8 -2 30.5 q-1 22.5 -2 52.5 q-1 30 -2 65 q-1 35 -1.5 69 q-0.5 34 -1 65 q-0.5 31 -0.5 52 q0 81 1 128 q1 47 2 75 q130 -138 260 -277.5 q130 -139.5 245 -272.5 Z" /><glyph glyph-name="O" unicode="O" d="M42 340 q0 -85 27.5 -151.5 q27.5 -66.5 77 -112.5 q49.5 -46 118.5 -68.5 q69 -22.5 151 -22.5 q83 0 152 22.5 q69 22.5 118.5 68.5 q49.5 46 77 112.5 q27.5 66.5 27.5 151.5 q0 85 -27.5 151.5 q-27.5 66.5 -77 112.5 q-49.5 46 -118.5 70 q-69 24 -152 24 q-82 0 -151 -24 q-69 -24 -118.5 -70 q-49.5 -46 -77 -112.5 q-27.5 -66.5 -27.5 -151.5 ZM693 340 q0 -83 -21 -143.5 q-21 -60.5 -58.5 -100 q-37.5 -39.5 -88 -58.5 q-50.5 -19 -109.5 -19 q-58 0 -108.5 19 q-50.5 19 -88 58.5 q-37.5 39.5 -58.5 100 q-21 60.5 -21 143.5 q0 83 21 143.5 q21 60.5 58.5 100 q37.5 39.5 88 58.5 q50.5 19 108.5 19 q59 0 109.5 -19 q50.5 -19 88 -58.5 q37.5 -39.5 58.5 -100 q21 -60.5 21 -143.5 Z" /><glyph glyph-name="P" unicode="P" d="M180 351 l0 297 l90 0 q39 0 70 -5.5 q31 -5.5 52.5 -20.5 q21.5 -15 33.5 -42 q12 -27 12 -70 q0 -51 -17.5 -83.5 q-17.5 -32.5 -45 -51 q-27.5 -18.5 -60.5 -25.5 q-33 -7 -64 -7 q-37 0 -71 8 ZM98 426 l0 -172 q0 -66 -2.5 -130 q-2.5 -64 -5.5 -126 q23 2 49 2 q26 0 49 -2 q-3 62 -5.5 126 q-2.5 64 -2.5 130 l0 55 q20 -2 39 -2.5 q19 -0.5 42 -0.5 q36 0 82.5 8 q46.5 8 88 31 q41.5 23 70 64 q28.5 41 28.5 107 q0 42 -12 70.5 q-12 28.5 -31.5 47.5 q-19.5 19 -43.5 29 q-24 10 -48.5 15 q-24.5 5 -46.5 6 q-22 1 -37 1 q-11 0 -27 -1 q-16 -1 -33.5 -1.5 q-17.5 -0.5 -34.5 -1.5 q-17 -1 -29 -1 q-24 0 -48.5 1.5 q-24.5 1.5 -48.5 3.5 q3 -66 5.5 -129.5 q2.5 -63.5 2.5 -129.5 Z" /><glyph glyph-name="R" unicode="R" d="M98 426 l0 -172 q0 -66 -2.5 -130 q-2.5 -64 -5.5 -126 q23 2 49 2 q26 0 49 -2 q-3 62 -5.5 126 q-2.5 64 -2.5 130 l0 73 l38 0 q32 -33 70.5 -80.5 q38.5 -47.5 75.5 -95.5 q37 -48 67.5 -90 q30.5 -42 45.5 -63 q14 2 29 2 q15 0 29 0 q15 0 30 0 q15 0 30 -2 q-14 14 -37 41 q-23 27 -49 59.5 q-26 32.5 -54 68 q-28 35.5 -54 68 q-26 32.5 -47 59.5 q-21 27 -33 42 q29 4 64.5 16.5 q35.5 12.5 66.5 35 q31 22.5 52.5 57 q21.5 34.5 21.5 82.5 q0 45 -16.5 75 q-16.5 30 -45 48.5 q-28.5 18.5 -66.5 26.5 q-38 8 -80 8 q-29 0 -57 -2.5 q-28 -2.5 -57 -2.5 q-29 0 -57 1.5 q-28 1.5 -57 3.5 q3 -66 5.5 -129.5 q2.5 -63.5 2.5 -129.5 ZM180 369 l0 57 q0 54 2 108 q2 54 4 109 q16 2 39 3.5 q23 1.5 58 1.5 q26 0 53 -5.5 q27 -5.5 50 -20.5 q23 -15 37.5 -40.5 q14.5 -25.5 14.5 -64.5 q0 -45 -18.5 -74.5 q-18.5 -29.5 -46.5 -47 q-28 -17.5 -61.5 -24.5 q-33.5 -7 -64.5 -7 q-20 0 -36.5 1 q-16.5 1 -30.5 4 Z" /><glyph glyph-name="S" unicode="S" d="M76 128 l-12 0 q-3 -29 -6.5 -47.5 q-3.5 -18.5 -12.5 -41.5 q26 -21 64.5 -37.5 q38.5 -16.5 100.5 -16.5 q58 0 103.5 16.5 q45.5 16.5 77 47 q31.5 30.5 48 71.5 q16.5 41 16.5 87 q0 55 -23.5 88 q-23.5 33 -58.5 54 q-35 21 -75.5 35.5 q-40.5 14.5 -75.5 33 q-35 18.5 -58.5 45.5 q-23.5 27 -23.5 74 q0 27 9.5 50 q9.5 23 27 39.5 q17.5 16.5 41 25.5 q23.5 9 51.5 9 q28 0 48 -9.5 q20 -9.5 34.5 -23.5 q14.5 -14 23 -30.5 q8.5 -16.5 13.5 -30.5 l12 0 q6 29 12 48 q6 19 15 36 q-30 24 -65 35.5 q-35 11.5 -83 11.5 q-50 0 -90 -14 q-40 -14 -68.5 -39 q-28.5 -25 -43.5 -59.5 q-15 -34.5 -15 -76.5 q0 -59 23.5 -94 q23.5 -35 58.5 -57.5 q35 -22.5 75.5 -37.5 q40.5 -15 75.5 -33 q35 -18 58.5 -45 q23.5 -27 23.5 -73 q0 -30 -10 -56.5 q-10 -26.5 -28.5 -46 q-18.5 -19.5 -45 -31 q-26.5 -11.5 -59.5 -11.5 q-32 0 -58 9.5 q-26 9.5 -45.5 24.5 q-19.5 15 -33 33.5 q-13.5 18.5 -21.5 36.5 Z" /><glyph glyph-name="T" unicode="T" d="M237 426 l0 -172 q0 -66 -2.5 -130 q-2.5 -64 -5.5 -126 q23 2 49 2 q26 0 49 -2 q-3 62 -5.5 126 q-2.5 64 -2.5 130 l0 172 q0 104 3 207 q26 0 54.5 -0.5 q28.5 -0.5 57 -2 q28.5 -1.5 55 -3.5 q26.5 -2 47.5 -5 q-5 18 -5 31 q0 12 5 32 q-66 -2 -129 -3.5 q-63 -1.5 -129 -1.5 q-66 0 -129 1.5 q-63 1.5 -129 3.5 q5 -20 5 -31 q0 -14 -5 -32 q21 3 47.5 5 q26.5 2 55 3.5 q28.5 1.5 57 2 q28.5 0.5 54.5 0.5 q3 -103 3 -207 Z" /><glyph glyph-name="V" unicode="V" d="M296 -2 q13 2 33 2 q17 0 33 -2 q66 171 138 342 q72 171 150 345 q-22 -5 -37 -5 q-15 0 -37 5 q-11 -33 -27 -78 q-16 -45 -35.5 -97 q-19.5 -52 -40.5 -108.5 q-21 -56.5 -42.5 -111 q-21.5 -54.5 -42.5 -105 q-21 -50.5 -39 -91.5 q-32 76 -63 153 q-31 77 -60.5 152 q-29.5 75 -56 147.5 q-26.5 72.5 -48.5 138.5 q-14 -2 -27 -3.5 q-13 -1.5 -25 -1.5 q-12 0 -25 1.5 q-13 1.5 -27 3.5 q36 -86 75.5 -182 q39.5 -96 77 -188 q37.5 -92 70.5 -175 q33 -83 56 -142 Z" /><glyph glyph-name="W" unicode="W" d="M229 -2 q16 2 35 2 q19 0 35 -2 q15 44 33 98 q18 54 37 110 q19 56 38 111 q19 55 35.5 103 q16.5 48 30 86.5 q13.5 38.5 21.5 61.5 l2 0 q51 -150 95 -290.5 q44 -140.5 89 -279.5 q16 2 34 2 q18 0 34 -2 q9 24 27.5 78.5 q18.5 54.5 42 123 q23.5 68.5 49 144.5 q25.5 76 49 144 q23.5 68 42.5 121 q19 53 29 76 q-9 -2 -17.5 -3.5 q-8.5 -1.5 -17.5 -1.5 q-9 0 -17.5 1.5 q-8.5 1.5 -17.5 3.5 q-5 -22 -18.5 -68 q-13.5 -46 -31 -104.5 q-17.5 -58.5 -37 -123 q-19.5 -64.5 -38 -123 q-18.5 -58.5 -33 -105 q-14.5 -46.5 -21.5 -68.5 l-2 0 q-9 26 -24.5 72 q-15.5 46 -34.5 103 q-19 57 -39.5 119 q-20.5 62 -38.5 119.5 q-18 57.5 -32.5 104.5 q-14.5 47 -21.5 74 q-20 -5 -33 -5 q-13 0 -33 5 q-6 -25 -20 -71.5 q-14 -46.5 -32 -103 q-18 -56.5 -39 -118.5 q-21 -62 -40 -119.5 q-19 -57.5 -35 -105 q-16 -47.5 -25 -74.5 l-2 0 q-30 95 -53.5 170.5 q-23.5 75.5 -44 144 q-20.5 68.5 -38.5 135 q-18 66.5 -37 142.5 q-13 -2 -25 -3.5 q-12 -1.5 -25 -1.5 q-13 0 -25 1.5 q-12 1.5 -25 3.5 q10 -26 27.5 -80 q17.5 -54 38.5 -121.5 q21 -67.5 44 -142 q23 -74.5 44 -142.5 q21 -68 37.5 -122 q16.5 -54 24.5 -79 Z" /><glyph glyph-name="Y" unicode="Y" d="M265 279 q0 -81 -1 -155 q-1 -74 -7 -126 q23 2 49 2 q26 0 49 -2 q-2 21 -3.5 55.5 q-1.5 34.5 -2.5 75 q-1 40.5 -1.5 82.5 q-0.5 42 -0.5 79 q16 31 38 69.5 q22 38.5 51 86.5 q29 48 67 107 q38 59 86 132 q-25 -5 -39 -5 q-14 0 -39 5 q-20 -43 -43 -88.5 q-23 -45.5 -48 -90.5 q-25 -45 -50 -88 q-25 -43 -48 -79 q-52 91 -98.5 175 q-46.5 84 -91.5 171 q-14 -2 -27.5 -3.5 q-13.5 -1.5 -27.5 -1.5 q-14 0 -27.5 1.5 q-13.5 1.5 -27.5 3.5 q10 -16 29 -47.5 q19 -31.5 42.5 -71 q23.5 -39.5 49.5 -83 q26 -43.5 49.5 -83 q23.5 -39.5 43 -72 q19.5 -32.5 29.5 -49.5 Z" /><glyph glyph-name="bracketleft" unicode="[" d="M138 407 l0 -252 q0 -140 -6 -273 q23 3 51 3 q12 0 27.5 -0.5 q15.5 -0.5 31 -1 q15.5 -0.5 29.5 -1 q14 -0.5 24 -0.5 q-1 4 -1.5 7 q-0.5 3 -0.5 7 q0 2 0.5 6 q0.5 4 1.5 9 q-21 -1 -44.5 -1.5 q-23.5 -0.5 -46.5 -0.5 q-4 63 -6 123 q-2 60 -2 123 l0 252 q0 63 2 124.5 q2 61.5 6 124.5 q23 0 46.5 -0.5 q23.5 -0.5 44.5 -1.5 q-1 5 -1.5 9 q-0.5 4 -0.5 6 q0 4 0.5 7 q0.5 3 1.5 7 q-10 0 -24 -0.5 q-14 -0.5 -29.5 -1 q-15.5 -0.5 -31 -1 q-15.5 -0.5 -27.5 -0.5 q-28 0 -51 3 q6 -136 6 -276 Z" /><glyph glyph-name="bracketright" unicode="]" d="M137 407 l0 -252 q0 -63 -2 -123 q-2 -60 -6 -123 q-23 0 -46.5 0.5 q-23.5 0.5 -44.5 1.5 q1 -5 1.5 -9 q0.5 -4 0.5 -6 q0 -4 -0.5 -7 q-0.5 -3 -1.5 -7 q10 0 24 0.5 q14 0.5 29.5 1 q15.5 0.5 31 1 q15.5 0.5 27.5 0.5 q29 0 51 -3 q-6 133 -6 273 l0 252 q0 140 6 276 q-22 -3 -51 -3 q-12 0 -27.5 0.5 q-15.5 0.5 -31 1 q-15.5 0.5 -29.5 1 q-14 0.5 -24 0.5 q1 -4 1.5 -7 q0.5 -3 0.5 -7 q0 -2 -0.5 -6 q-0.5 -4 -1.5 -9 q21 1 44.5 1.5 q23.5 0.5 46.5 0.5 q4 -63 6 -124.5 q2 -61.5 2 -124.5 Z" /><glyph glyph-name="a" unicode="a" d="M333 247 l-4 -150 q-17 -28 -48.5 -49 q-31.5 -21 -69.5 -21 q-33 0 -60 24 q-27 24 -27 71 q0 28 10.5 46 q10.5 18 28 30 q17.5 12 40 19 q22.5 7 45.5 11.5 q23 4.5 45.5 8.5 q22.5 4 39.5 10 ZM86 425 l0 -52 l11 0 q17 32 51.5 50 q34.5 18 74.5 18 q30 0 51 -10.5 q21 -10.5 34 -27.5 q13 -17 19 -40 q6 -23 6 -48 q0 -15 -3 -24.5 q-3 -9.5 -17.5 -16.5 q-14.5 -7 -45 -13.5 q-30.5 -6.5 -84.5 -15.5 q-66 -11 -103.5 -44 q-37.5 -33 -37.5 -93 q0 -29 11.5 -51.5 q11.5 -22.5 30 -38.5 q18.5 -16 42.5 -23 q24 -7 49 -7 q51 0 86 17 q35 17 71 53 q3 -26 20 -42.5 q17 -16.5 49 -16.5 q20 0 36.5 3 q16.5 3 27.5 8 l0 22 q-5 -3 -10.5 -3.5 q-5.5 -0.5 -10.5 -0.5 q-15 0 -22.5 7 q-7.5 7 -11.5 17.5 q-4 10.5 -4.5 24 q-0.5 13.5 -0.5 25.5 q0 63 2 119.5 q2 56.5 2 113.5 q0 33 -12 60.5 q-12 27.5 -33 47 q-21 19.5 -51 30 q-30 10.5 -66 10.5 q-40 0 -78 -12 q-38 -12 -83 -46 Z" /><glyph glyph-name="b" unicode="b" d="M426 251 q0 -53 -11 -96 q-11 -43 -30.5 -74 q-19.5 -31 -45.5 -47.5 q-26 -16.5 -57 -16.5 q-146 0 -146 201 q0 62 12.5 104.5 q12.5 42.5 33.5 69 q21 26.5 49.5 38 q28.5 11.5 59.5 11.5 q26 0 50.5 -12.5 q24.5 -12.5 43 -36.5 q18.5 -24 30 -59.5 q11.5 -35.5 11.5 -81.5 ZM514 248 q0 47 -12.5 89.5 q-12.5 42.5 -37.5 74.5 q-25 32 -63 51.5 q-38 19.5 -90 19.5 q-54 0 -95 -25 q-41 -25 -75 -79 l-2 0 q1 46 2 102.5 q1 56.5 2 110 q1 53.5 3 97 q2 43.5 5 63.5 q-14 -2 -26 -3.5 q-12 -1.5 -23 -1.5 q-17 0 -45 5 q2 -25 3.5 -60.5 q1.5 -35.5 2.5 -74.5 q1 -39 1.5 -79 q0.5 -40 0.5 -74 l0 -181 q0 -34 -0.5 -74 q-0.5 -40 -1.5 -78.5 q-1 -38.5 -2.5 -72.5 q-1.5 -34 -3.5 -58 l18 0 q31 29 67 58 q20 -29 58.5 -49.5 q38.5 -20.5 86.5 -20.5 q48 0 89.5 18.5 q41.5 18.5 72 53 q30.5 34.5 48 82.5 q17.5 48 17.5 106 Z" /><glyph glyph-name="c" unicode="c" d="M42 234 q0 -68 21.5 -115 q21.5 -47 56.5 -76.5 q35 -29.5 78.5 -42 q43.5 -12.5 86.5 -12.5 q48 0 92.5 17 q44.5 17 74.5 41 q1 25 6 49 l-5 3 q-13 -15 -30.5 -28 q-17.5 -13 -37.5 -22.5 q-20 -9.5 -41 -15 q-21 -5.5 -41 -5.5 q-85 0 -129 52.5 q-44 52.5 -44 155.5 q0 46 9.5 85.5 q9.5 39.5 30 68.5 q20.5 29 53 45.5 q32.5 16.5 77.5 16.5 q24 0 44 -7.5 q20 -7.5 36.5 -19 q16.5 -11.5 28.5 -25 q12 -13.5 19 -26.5 l8 0 q4 18 9.5 34.5 q5.5 16.5 12.5 31.5 q-19 17 -62.5 30.5 q-43.5 13.5 -98.5 13.5 q-48 0 -94 -14.5 q-46 -14.5 -81.5 -45 q-35.5 -30.5 -57.5 -77.5 q-22 -47 -22 -112 Z" /><glyph glyph-name="d" unicode="d" d="M130 225 q0 45 8.5 84.5 q8.5 39.5 26 69 q17.5 29.5 44 46 q26.5 16.5 62.5 16.5 q72 0 109 -50.5 q37 -50.5 37 -146.5 q0 -40 -8.5 -80 q-8.5 -40 -27 -71.5 q-18.5 -31.5 -46.5 -51 q-28 -19.5 -67 -19.5 q-24 0 -49 9 q-25 9 -44.5 32.5 q-19.5 23.5 -32 62.5 q-12.5 39 -12.5 99 ZM416 93 l-3 -95 q20 2 38 2 q19 0 39 -2 q-1 58 -2 113 q-1 55 -1 124 q0 64 1 141 q1 77 2.5 150 q1.5 73 3.5 133.5 q2 60.5 5 92.5 q-13 -2 -23.5 -3.5 q-10.5 -1.5 -21.5 -1.5 q-11 0 -22 1.5 q-11 1.5 -23 3.5 q1 -24 1.5 -55 q0.5 -31 1 -66 q0.5 -35 1 -73.5 q0.5 -38.5 0.5 -76.5 l0 -98 l-2 0 q-43 100 -154 100 q-39 0 -77.5 -15.5 q-38.5 -15.5 -69 -47 q-30.5 -31.5 -49.5 -78.5 q-19 -47 -19 -111 q0 -65 17.5 -111.5 q17.5 -46.5 46 -76 q28.5 -29.5 65 -42.5 q36.5 -13 74.5 -13 q37 0 65 10 q28 10 48.5 26 q20.5 16 34 34.5 q13.5 18.5 21.5 34.5 l2 0 Z" /><glyph glyph-name="e" unicode="e" d="M266 451 q39 0 63 -17 q24 -17 37.5 -43 q13.5 -26 18 -56 q4.5 -30 4.5 -57 q-32 -1 -66 -2 q-34 -1 -67 -1 q-32 0 -65.5 1 q-33.5 1 -64.5 2 q2 27 10.5 57.5 q8.5 30.5 25 56 q16.5 25.5 42 42.5 q25.5 17 62.5 17 ZM35 220 q0 -50 17.5 -93 q17.5 -43 50 -74.5 q32.5 -31.5 77 -48 q44.5 -16.5 98.5 -16.5 q48 0 92.5 17 q44.5 17 74.5 41 l6 49 l-5 3 q-13 -15 -30.5 -28 q-17.5 -13 -37.5 -22.5 q-20 -9.5 -41 -15 q-21 -5.5 -41 -5.5 q-42 0 -74 14.5 q-32 14.5 -54 39 q-22 24.5 -33.5 58.5 q-11.5 34 -11.5 73 l0 13 q0 10 1 15 q33 1 65.5 2 q32.5 1 65.5 1 q54 0 107 -1 q53 -1 107 -2 q1 10 1.5 19.5 q0.5 9.5 0.5 19.5 q0 42 -12.5 79 q-12.5 37 -38.5 64.5 q-26 27.5 -64.5 44 q-38.5 16.5 -91.5 16.5 q-112 0 -170.5 -70 q-58.5 -70 -58.5 -193 Z" /><glyph glyph-name="f" unicode="f" d="M288 669 l6 3 q0 20 1.5 40 q1.5 20 2.5 40 q-9 3 -20 3 q-29 0 -56.5 -14 q-27.5 -14 -45.5 -32 q-20 -20 -36 -49.5 q-16 -29.5 -27.5 -62.5 q-11.5 -33 -17.5 -67 q-6 -34 -6 -63 q-17 0 -35.5 0.5 q-18.5 0.5 -36.5 0.5 q1 -5 1.5 -10 q0.5 -5 0.5 -10 q0 -5 -0.5 -10 q-0.5 -5 -1.5 -10 q18 1 36 2 q18 1 36 1 q0 -111 -1 -217.5 q-1 -106.5 -8 -215.5 q23 2 44 2 q10 0 21 0 q11 0 22 -2 q-3 109 -3.5 216.5 q-0.5 107.5 -0.5 216.5 q26 0 51.5 -1 q25.5 -1 51.5 -2 q-1 5 -1.5 10 q-0.5 5 -0.5 10 q0 5 0.5 10 q0.5 5 1.5 10 q-26 0 -51.5 -0.5 q-25.5 -0.5 -51.5 -0.5 q-5 31 -8.5 65 q-3.5 34 -3.5 52 q0 20 4.5 38 q4.5 18 14.5 31.5 q10 13.5 25.5 22 q15.5 8.5 37.5 8.5 q31 0 55 -15 Z" /><glyph glyph-name="g" unicode="g" d="M405 -108 q0 -34 -14 -58.5 q-14 -24.5 -36.5 -40.5 q-22.5 -16 -51.5 -24 q-29 -8 -59 -8 q-31 0 -58 7 q-27 7 -46.5 22 q-19.5 15 -31 39 q-11.5 24 -11.5 58 q0 64 41 88.5 q41 24.5 116 24.5 q81 0 116 -24 q35 -24 35 -84 ZM351 325 q0 -28 -6.5 -53.5 q-6.5 -25.5 -20 -45 q-13.5 -19.5 -34 -31 q-20.5 -11.5 -49.5 -11.5 q-58 0 -85.5 36.5 q-27.5 36.5 -27.5 99.5 q0 61 30 97.5 q30 36.5 84 36.5 q49 0 79 -33 q30 -33 30 -96 ZM50 320 q0 -55 26 -91.5 q26 -36.5 72 -56.5 l0 -2 q-12 -2 -25 -9 q-13 -7 -23 -18 q-10 -11 -16.5 -25 q-6.5 -14 -6.5 -31 q0 -29 16 -50 q16 -21 47 -30 l0 -2 q-20 -5 -39 -15 q-19 -10 -34 -27 q-15 -17 -24.5 -39 q-9.5 -22 -9.5 -48 q0 -67 56 -105.5 q56 -38.5 153 -38.5 q63 0 108 19 q45 19 73.5 48 q28.5 29 42 65 q13.5 36 13.5 71 q0 26 -9.5 48 q-9.5 22 -30 39 q-20.5 17 -53 27 q-32.5 10 -78.5 11 q-28 1 -55 1.5 q-27 0.5 -55 1.5 q-34 1 -46.5 13 q-12.5 12 -12.5 38 q0 20 15.5 33 q15.5 13 33.5 13 q14 0 27.5 -1 q13.5 -1 27.5 -1 q85 0 135.5 42.5 q50.5 42.5 50.5 117.5 q0 38 -19 73.5 q-19 35.5 -50 52.5 l2 2 q27 -1 54.5 -3.5 q27.5 -2.5 56.5 -4.5 q-1 5 -1.5 10.5 q-0.5 5.5 -0.5 10.5 q0 5 0.5 10.5 q0.5 5.5 1.5 10.5 q-25 -5 -81 -5 q-11 0 -29 1 q-18 1 -41 3 q-27 2 -44.5 3 q-17.5 1 -36.5 1 q-39 0 -73.5 -10 q-34.5 -10 -61 -30 q-26.5 -20 -41.5 -50.5 q-15 -30.5 -15 -72.5 Z" /><glyph glyph-name="h" unicode="h" d="M84 464 l0 -181 q0 -34 -0.5 -74 q-0.5 -40 -1.5 -79 q-1 -39 -2.5 -74 q-1.5 -35 -3.5 -58 q23 2 45 2 q22 0 45 -2 q-2 22 -3.5 57 q-1.5 35 -2.5 72.5 q-1 37.5 -1.5 74.5 q-0.5 37 -0.5 65 q0 78 32.5 121 q32.5 43 102.5 43 q51 0 80 -38.5 q29 -38.5 29 -113.5 l0 -61 q0 -58 -2.5 -113 q-2.5 -55 -4.5 -107 q20 2 41 2 q22 0 42 -2 q-1 14 -1.5 29.5 q-0.5 15.5 -0.5 31.5 l0 65 q0 51 2 96.5 q2 45.5 2 88.5 q0 52 -14.5 85.5 q-14.5 33.5 -37.5 53 q-23 19.5 -51.5 27.5 q-28.5 8 -56.5 8 q-54 0 -93 -23.5 q-39 -23.5 -67 -66.5 l-2 0 l0 76 q0 33 0.5 72 q0.5 39 1.5 77.5 q1 38.5 2.5 73.5 q1.5 35 3.5 60 q-28 -5 -45 -5 q-17 0 -45 5 q2 -25 3.5 -60.5 q1.5 -35.5 2.5 -74.5 q1 -39 1.5 -79 q0.5 -40 0.5 -74 Z" /><glyph glyph-name="i" unicode="i" d="M88 647 q0 -21 15 -36 q15 -15 36 -15 q21 0 36 15 q15 15 15 36 q0 21 -15 36 q-15 15 -36 15 q-21 0 -36 -15 q-15 -15 -15 -36 ZM102 286 l0 -104 q0 -45 -1.5 -94.5 q-1.5 -49.5 -6.5 -89.5 q23 2 45 2 q22 0 45 -2 q-5 40 -6.5 89.5 q-1.5 49.5 -1.5 94.5 l0 104 q0 45 1.5 94.5 q1.5 49.5 6.5 92.5 q-28 -5 -45 -5 q-17 0 -45 5 q5 -43 6.5 -92.5 q1.5 -49.5 1.5 -94.5 Z" /><glyph glyph-name="j" unicode="j" d="M88 647 q0 -21 15 -36 q15 -15 36 -15 q21 0 36 15 q15 15 15 36 q0 21 -15 36 q-15 15 -36 15 q-21 0 -36 -15 q-15 -15 -15 -36 ZM102 246 l0 -294 q0 -33 -3 -66.5 q-3 -33.5 -13 -60.5 q-10 -27 -27.5 -44 q-17.5 -17 -46.5 -17 q-5 0 -8.5 0.5 q-3.5 0.5 -4.5 1.5 l4 -34 q48 2 85.5 23 q37.5 21 59.5 53 q23 34 27.5 69.5 q4.5 35.5 4.5 77.5 q0 55 -2 112 q-2 57 -2 115 l0 104 q0 45 1.5 94.5 q1.5 49.5 6.5 92.5 q-28 -5 -45 -5 q-17 0 -45 5 q3 -21 4.5 -48 q1.5 -27 2 -57 q0.5 -30 1 -61 q0.5 -31 0.5 -61 Z" /><glyph glyph-name="k" unicode="k" d="M84 464 l0 -181 q0 -34 -0.5 -74 q-0.5 -40 -1.5 -79 q-1 -39 -2.5 -74 q-1.5 -35 -3.5 -58 q23 2 45 2 q22 0 45 -2 q-5 43 -6.5 85.5 q-1.5 42.5 -1.5 87.5 l0 60 q0 12 10 12 q4 0 8 -3 q4 -3 7 -7 q18 -19 43 -48 q25 -29 52.5 -62 q27.5 -33 55.5 -66.5 q28 -33.5 50 -58.5 q14 2 27 2 q13 0 24 0 q13 0 26.5 0 q13.5 0 30.5 -2 q-63 67 -123.5 136 q-60.5 69 -117.5 138 q52 51 109.5 100.5 q57.5 49.5 120.5 100.5 q-17 -2 -28 -3.5 q-11 -1.5 -22 -1.5 q-18 0 -38 5 q-23 -27 -51 -57 q-28 -30 -54.5 -56.5 q-26.5 -26.5 -48 -46.5 q-21.5 -20 -30.5 -27 q-12 -9 -21.5 -16 q-9.5 -7 -17.5 -7 q-12 0 -12 19 l0 182 q0 34 0.5 74 q0.5 40 1.5 79 q1 39 2.5 74.5 q1.5 35.5 3.5 60.5 q-28 -5 -45 -5 q-17 0 -45 5 q2 -25 3.5 -60.5 q1.5 -35.5 2.5 -74.5 q1 -39 1.5 -79 q0.5 -40 0.5 -74 Z" /><glyph glyph-name="l" unicode="l" d="M102 464 l0 -181 q0 -34 -0.5 -74 q-0.5 -40 -1.5 -79 q-1 -39 -2.5 -74 q-1.5 -35 -3.5 -58 q23 2 45 2 q22 0 45 -2 q-2 23 -3.5 58 q-1.5 35 -2.5 74 q-1 39 -1.5 79 q-0.5 40 -0.5 74 l0 181 q0 34 0.5 74 q0.5 40 1.5 79 q1 39 2.5 74.5 q1.5 35.5 3.5 60.5 q-28 -5 -45 -5 q-17 0 -45 5 q2 -25 3.5 -60.5 q1.5 -35.5 2.5 -74.5 q1 -39 1.5 -79 q0.5 -40 0.5 -74 Z" /><glyph glyph-name="m" unicode="m" d="M78 286 l0 -104 q0 -45 -1.5 -94.5 q-1.5 -49.5 -6.5 -89.5 q23 2 45 2 q22 0 45 -2 q-5 40 -6.5 89.5 q-1.5 49.5 -1.5 94.5 l0 85 q0 78 31 121 q31 43 97 43 q25 0 48.5 -13.5 q23.5 -13.5 34.5 -32.5 q6 -12 9.5 -22 q3.5 -10 5.5 -25.5 q2 -15.5 2.5 -42 q0.5 -26.5 0.5 -73.5 q0 -55 -2 -112 q-2 -57 -7 -112 q23 2 44 2 q21 0 44 -2 q-2 42 -3.5 77.5 q-1.5 35.5 -1.5 78.5 q0 71 1 111.5 q1 40.5 3.5 63 q2.5 22.5 7 33.5 q4.5 11 12.5 22 q14 19 39 33 q25 14 61 14 q30 0 50 -9.5 q20 -9.5 32 -25.5 q12 -16 17.5 -38 q5.5 -22 5.5 -47 q0 -136 -3.5 -212 q-3.5 -76 -6.5 -101 q11 2 22 2 q11 0 22 0 q10 0 21 0 q11 0 22 -2 q-2 29 -2.5 54 q-0.5 25 -0.5 52 q0 44 1 77.5 q1 33.5 2 60 q1 26.5 2 46.5 q1 20 1 37 q0 42 -11.5 72 q-11.5 30 -32 49 q-20.5 19 -48.5 28 q-28 9 -61 9 q-54 0 -95.5 -25.5 q-41.5 -25.5 -65.5 -73.5 l-2 0 q-5 21 -19 39.5 q-14 18.5 -33.5 31.5 q-19.5 13 -43.5 20.5 q-24 7.5 -49 7.5 q-96 0 -149 -90 l-2 0 q0 40 3 80 q-13 -2 -22.5 -3.5 q-9.5 -1.5 -17.5 -1.5 q-17 0 -45 5 q5 -43 6.5 -92.5 q1.5 -49.5 1.5 -94.5 Z" /><glyph glyph-name="n" unicode="n" d="M402 279 l0 -61 q0 -58 -2.5 -113 q-2.5 -55 -4.5 -107 q20 2 41 2 q22 0 42 -2 q-1 14 -1.5 29.5 q-0.5 15.5 -0.5 31.5 l0 65 q0 51 2 96.5 q2 45.5 2 88.5 q0 52 -14.5 85.5 q-14.5 33.5 -37.5 53 q-23 19.5 -51.5 27.5 q-28.5 8 -56.5 8 q-54 0 -93 -23.5 q-39 -23.5 -67 -66.5 l-2 0 q0 40 3 80 q-13 -2 -22.5 -3.5 q-9.5 -1.5 -17.5 -1.5 q-17 0 -45 5 q5 -43 6.5 -92.5 q1.5 -49.5 1.5 -94.5 l0 -104 q0 -45 -1.5 -94.5 q-1.5 -49.5 -6.5 -89.5 q23 2 45 2 q22 0 45 -2 q-5 40 -6.5 89.5 q-1.5 49.5 -1.5 94.5 l0 85 q0 78 32.5 121 q32.5 43 102.5 43 q51 0 80 -38.5 q29 -38.5 29 -113.5 Z" /><glyph glyph-name="o" unicode="o" d="M123 234 q0 42 7.5 81 q7.5 39 25.5 69.5 q18 30.5 48 48.5 q30 18 74 18 q44 0 74 -18 q30 -18 48 -48.5 q18 -30.5 25.5 -69.5 q7.5 -39 7.5 -81 q0 -42 -7.5 -81 q-7.5 -39 -25.5 -69.5 q-18 -30.5 -48 -48.5 q-30 -18 -74 -18 q-44 0 -74 18 q-30 18 -48 48.5 q-18 30.5 -25.5 69.5 q-7.5 39 -7.5 81 ZM35 234 q0 -68 21.5 -115.5 q21.5 -47.5 56.5 -77 q35 -29.5 78.5 -41.5 q43.5 -12 86.5 -12 q44 0 87 12 q43 12 78 41.5 q35 29.5 56.5 77 q21.5 47.5 21.5 115.5 q0 68 -21.5 115.5 q-21.5 47.5 -56.5 77 q-35 29.5 -78 43 q-43 13.5 -87 13.5 q-43 0 -86.5 -13.5 q-43.5 -13.5 -78.5 -43 q-35 -29.5 -56.5 -77 q-21.5 -47.5 -21.5 -115.5 Z" /><glyph glyph-name="p" unicode="p" d="M65 182 l0 -162 q0 -32 -0.5 -71.5 q-0.5 -39.5 -1.5 -78.5 q-1 -39 -2.5 -74.5 q-1.5 -35.5 -3.5 -60.5 q28 5 45 5 q17 0 45 -5 q-2 25 -3.5 60.5 q-1.5 35.5 -2.5 74.5 q-1 39 -1.5 78.5 q-0.5 39.5 -0.5 71.5 l0 63 l2 0 q47 -95 157 -95 q39 0 78 14.5 q39 14.5 69.5 45.5 q30.5 31 49.5 78 q19 47 19 111 q0 64 -17.5 110.5 q-17.5 46.5 -46 76.5 q-28.5 30 -65.5 44.5 q-37 14.5 -75 14.5 q-37 0 -66 -11 q-29 -11 -49.5 -27.5 q-20.5 -16.5 -33.5 -35 q-13 -18.5 -20 -34.5 l-2 0 q0 24 2 48 q2 24 6 50 q-28 -5 -45 -5 q-17 0 -45 5 q2 -26 3.5 -62 q1.5 -36 2.5 -75.5 q1 -39.5 1.5 -79.5 q0.5 -40 0.5 -74 ZM426 238 q0 -45 -8.5 -84.5 q-8.5 -39.5 -26 -69 q-17.5 -29.5 -44 -46 q-26.5 -16.5 -62.5 -16.5 q-146 0 -146 208 q0 43 8 81.5 q8 38.5 26 67 q18 28.5 46.5 45.5 q28.5 17 68.5 17 q24 0 49 -9 q25 -9 44.5 -32.5 q19.5 -23.5 32 -62.5 q12.5 -39 12.5 -99 Z" /><glyph glyph-name="r" unicode="r" d="M305 391 l7 5 q0 20 1 44.5 q1 24.5 6 36.5 q-10 4 -16.5 5 q-6.5 1 -15.5 1 q-73 0 -132 -108 l-2 1 q0 19 0.5 40 q0.5 21 4.5 57 q-11 -2 -21 -3.5 q-10 -1.5 -19 -1.5 q-11 0 -21 1.5 q-10 1.5 -21 3.5 q3 -66 3.5 -117 q0.5 -51 0.5 -90 l0 -32 q0 -85 -0.5 -143.5 q-0.5 -58.5 -3.5 -92.5 q20 2 42 2 q20 0 40 -2 q-3 22 -3.5 57.5 q-0.5 35.5 -0.5 102.5 l0 110 q0 29 7 54.5 q7 25.5 20 44 q13 18.5 32 29.5 q19 11 43 11 q15 0 29.5 -5 q14.5 -5 19.5 -11 Z" /><glyph glyph-name="s" unicode="s" d="M71 91 l-12 0 q0 -15 -6.5 -37.5 q-6.5 -22.5 -12.5 -35.5 q21 -12 52 -21 q31 -9 77 -9 q42 0 75 12.5 q33 12.5 56.5 35 q23.5 22.5 36 50.5 q12.5 28 12.5 57 q0 42 -17.5 66 q-17.5 24 -43.5 37.5 q-26 13.5 -57 21 q-31 7.5 -57 17.5 q-26 10 -43.5 27.5 q-17.5 17.5 -17.5 49.5 q0 22 8 38 q8 16 20 26 q12 10 27 15 q15 5 30 5 q34 0 57 -19 q23 -19 31 -43 l12 0 q2 12 9 34 q7 22 15 37 q-23 8 -48.5 18 q-25.5 10 -62.5 10 q-40 0 -71 -11.5 q-31 -11.5 -52 -31.5 q-21 -20 -32 -47.5 q-11 -27.5 -11 -60.5 q0 -42 17.5 -66 q17.5 -24 43.5 -38.5 q26 -14.5 57 -22.5 q31 -8 57 -18.5 q26 -10.5 43.5 -27 q17.5 -16.5 17.5 -47.5 q0 -22 -8 -39 q-8 -17 -21.5 -28 q-13.5 -11 -31 -17 q-17.5 -6 -36.5 -6 q-21 0 -39.5 7 q-18.5 7 -33 17.5 q-14.5 10.5 -25 22.5 q-10.5 12 -15.5 22 Z" /><glyph glyph-name="t" unicode="t" d="M162 607 l-83 -35 q2 -32 2.5 -62 q0.5 -30 1.5 -50 q-21 0 -66 3 q1 -5 1.5 -10 q0.5 -5 0.5 -10 q0 -6 -0.5 -11.5 q-0.5 -5.5 -1.5 -11.5 q10 1 19 1.5 q9 0.5 17 0.5 l32 0 q0 -56 -1 -101.5 q-1 -45.5 -2.5 -83 q-1.5 -37.5 -2.5 -69 q-1 -31.5 -1 -58.5 q0 -60 30 -91 q30 -31 93 -31 q19 0 39.5 4.5 q20.5 4.5 37.5 7.5 l0 24 q-10 -3 -23.5 -5 q-13.5 -2 -21.5 -2 q-30 0 -46 13 q-16 13 -24 34.5 q-8 21.5 -9.5 48.5 q-1.5 27 -1.5 55 q0 33 0.5 75 q0.5 42 1.5 80.5 q1 38.5 2.5 66.5 q1.5 28 2.5 32 l49 0 q16 0 30 -0.5 q14 -0.5 27 -1.5 q-1 3 -1 10 l0 11 l0 10 q0 8 1 11 q-35 -2 -65 -2.5 q-30 -0.5 -41 -0.5 q2 37 3.5 73.5 q1.5 36.5 4.5 74.5 l-5 0 Z" /><glyph glyph-name="u" unicode="u" d="M76 149 q0 -78 44.5 -119.5 q44.5 -41.5 122.5 -41.5 q48 0 89 22.5 q41 22.5 67 70.5 l2 0 l0 -43 q0 -11 -0.5 -21 q-0.5 -10 -1.5 -19 q20 2 39 2 q19 0 39 -2 q-2 40 -3 83 q-1 43 -1 88 q0 81 1 153.5 q1 72.5 6 150.5 q-10 -2 -20 -3.5 q-10 -1.5 -21 -1.5 q-11 0 -21 1.5 q-10 1.5 -21 3.5 q1 -18 1.5 -38 q0.5 -20 0.5 -42 l0 -84 q0 -59 -0.5 -93 q-0.5 -34 -3 -54 q-2.5 -20 -6.5 -32 q-4 -12 -11 -29 q-13 -27 -41 -45.5 q-28 -18.5 -70 -18.5 q-29 0 -50.5 10.5 q-21.5 10.5 -35.5 26.5 q-13 14 -22 41.5 q-9 27.5 -9 79.5 q0 75 2.5 146.5 q2.5 71.5 7.5 131.5 q-25 -5 -41 -5 q-17 0 -42 5 q1 -42 1.5 -83 q0.5 -41 0.5 -76 q0 -37 -1.5 -74.5 q-1.5 -37.5 -1.5 -90.5 Z" /><glyph glyph-name="v" unicode="v" d="M215 -2 q16 2 32 2 q16 0 31 -2 q43 118 95 236 q52 118 106 239 q-18 -5 -31 -5 q-13 0 -31 5 q-18 -49 -36.5 -100.5 q-18.5 -51.5 -38 -102.5 q-19.5 -51 -39 -98.5 q-19.5 -47.5 -39.5 -88.5 q-45 100 -81.5 195.5 q-36.5 95.5 -67.5 194.5 q-11 -2 -22 -3.5 q-11 -1.5 -22 -1.5 q-13 0 -25 1.5 q-12 1.5 -25 3.5 q55 -121 101.5 -239 q46.5 -118 92.5 -236 Z" /><glyph glyph-name="w" unicode="w" d="M193 -2 q12 2 28 2 q16 0 28 -2 q14 42 32 94.5 q18 52.5 36 103.5 q18 51 35 95.5 q17 44.5 29 74.5 q40 -99 71 -189 q31 -90 57 -179 q5 2 12 2 q7 0 14 0 q15 0 26 -2 q43 118 92.5 236 q49.5 118 106.5 239 q-17 -5 -30 -5 q-12 0 -32 5 q-17 -47 -36.5 -101 q-19.5 -54 -38.5 -105.5 q-19 -51.5 -36.5 -98 q-17.5 -46.5 -30.5 -78.5 q-36 100 -69 193.5 q-33 93.5 -58 189.5 q-8 -2 -14 -3.5 q-6 -1.5 -14 -1.5 q-12 0 -30 5 q-14 -47 -32 -102 q-18 -55 -36 -108 q-18 -53 -35 -99 q-17 -46 -29 -74 q-39 100 -70.5 194.5 q-31.5 94.5 -57.5 188.5 q-13 -2 -24 -3.5 q-11 -1.5 -22 -1.5 q-12 0 -23.5 1.5 q-11.5 1.5 -23.5 3.5 q25 -60 50.5 -127.5 q25.5 -67.5 49 -132 q23.5 -64.5 43.5 -121.5 q20 -57 32 -94 Z" /><glyph glyph-name="x" unicode="x" d="M259 286 q-35 48 -66.5 93.5 q-31.5 45.5 -60.5 93.5 q-14 -2 -26.5 -3.5 q-12.5 -1.5 -26.5 -1.5 q-14 0 -26.5 1.5 q-12.5 1.5 -26.5 3.5 q48 -63 93.5 -123 q45.5 -60 90.5 -121 q-45 -60 -91 -117.5 q-46 -57.5 -94 -113.5 q16 2 34 2 q17 0 33 -2 q34 49 69.5 99.5 q35.5 50.5 72.5 101.5 q36 -51 71 -101.5 q35 -50.5 68 -99.5 q14 2 27 2 q13 0 24 0 q11 0 24 0 q13 0 27 -2 q-51 64 -99.5 128.5 q-48.5 64.5 -93.5 130.5 q45 54 90.5 107.5 q45.5 53.5 93.5 108.5 q-22 -5 -34 -5 q-9 0 -17.5 1.5 q-8.5 1.5 -17.5 3.5 q-33 -48 -67.5 -93.5 q-34.5 -45.5 -70.5 -93.5 Z" /><glyph glyph-name="y" unicode="y" d="M222 -3 q-55 -131 -134 -262 q20 5 34 5 q14 0 34 -5 q8 25 24.5 67.5 q16.5 42.5 38.5 95 q22 52.5 48 111 q26 58.5 52.5 118 q26.5 59.5 52 116 q25.5 56.5 47 103 q21.5 46.5 37 80 q15.5 33.5 22.5 47.5 q-20 -5 -33 -5 q-13 0 -33 5 q-30 -96 -68.5 -196 q-38.5 -100 -80.5 -188 q-42 100 -80 194 q-38 94 -69 190 q-13 -2 -24 -3.5 q-11 -1.5 -22 -1.5 q-11 0 -22 1.5 q-11 1.5 -24 3.5 q7 -16 21 -49 q14 -33 32.5 -76.5 q18.5 -43.5 39.5 -93 q21 -49.5 41 -97 q20 -47.5 37.5 -90.5 q17.5 -43 28.5 -70 Z" /><glyph glyph-name="z" unicode="z" d="M34 9 l0 -11 q45 2 88.5 2 q43.5 0 88.5 0 q63 0 125 0 q62 0 125 -2 q-4 9 -4 25 q0 16 4 28 q-53 -5 -93 -7.5 q-40 -2.5 -75 -4 q-35 -1.5 -69.5 -2 q-34.5 -0.5 -75.5 -0.5 q19 26 56 75.5 q37 49.5 82 109 q45 59.5 92.5 122 q47.5 62.5 87.5 114.5 l0 15 q-16 -1 -30.5 -2 q-14.5 -1 -29.5 -2 q-15 -1 -33 -1 q-17 0 -38 0 q-94 0 -156 1 q-62 1 -94 4 q3 -16 3 -29 q0 -14 -3 -28 q28 3 71.5 5.5 q43.5 2.5 85.5 5 q42 2.5 74.5 3.5 q32.5 1 39.5 1 q-27 -36 -64.5 -87 q-37.5 -51 -80.5 -108 q-43 -57 -88.5 -116 q-45.5 -59 -88.5 -111 Z" /><glyph glyph-name="periodcentered" unicode="·" d="M79 306 q0 -25 17.5 -42.5 q17.5 -17.5 42.5 -17.5 q25 0 42.5 17.5 q17.5 17.5 17.5 42.5 q0 25 -17.5 42.5 q-17.5 17.5 -42.5 17.5 q-25 0 -42.5 -17.5 q-17.5 -17.5 -17.5 -42.5 Z" /><glyph glyph-name="endash" unicode="&#x2013;" d="M0 254 l0 -47 l500 0 l0 47 l-500 0 Z" /><glyph glyph-name="emdash" unicode="&#x2014;" d="M0 254 l0 -47 l1000 0 l0 47 l-1000 0 Z" /><glyph glyph-name="quoteleft" unicode="&#x2018;" d="M151 448 l77 243 l-18 7 l-125 -212 q-5 -10 -10 -20 q-5 -10 -5 -22 q0 -18 12.5 -26 q12.5 -8 24.5 -8 q20 0 30 12.5 q10 12.5 14 25.5 Z" /><glyph glyph-name="quoteright" unicode="&#x2019;" d="M127 660 l-77 -243 l18 -7 l125 212 q5 10 10 20 q5 10 5 22 q0 18 -12.5 26 q-12.5 8 -24.5 8 q-20 0 -30 -12.5 q-10 -12.5 -14 -25.5 Z" /><glyph glyph-name="quotedblleft" unicode="&#x201c;" d="M145 448 l77 243 l-18 7 l-125 -212 q-5 -10 -10 -20 q-5 -10 -5 -22 q0 -18 12.5 -26 q12.5 -8 24.5 -8 q20 0 30 12.5 q10 12.5 14 25.5 ZM317 448 l77 243 l-18 7 l-125 -212 q-5 -10 -10 -20 q-5 -10 -5 -22 q0 -18 12.5 -26 q12.5 -8 24.5 -8 q20 0 30 12.5 q10 12.5 14 25.5 Z" /><glyph glyph-name="quotedblright" unicode="&#x201d;" d="M127 660 l-77 -243 l18 -7 l125 212 q5 10 10 20 q5 10 5 22 q0 18 -12.5 26 q-12.5 8 -24.5 8 q-20 0 -30 -12.5 q-10 -12.5 -14 -25.5 ZM299 660 l-77 -243 l18 -7 l125 212 q5 10 10 20 q5 10 5 22 q0 18 -12.5 26 q-12.5 8 -24.5 8 q-20 0 -30 -12.5 q-10 -12.5 -14 -25.5 Z" /><glyph glyph-name="ellipsis" unicode="&#x2026;" d="M776 45 q0 -23 17 -38.5 q17 -15.5 40 -15.5 q23 0 40 15.5 q17 15.5 17 38.5 q0 23 -17 40 q-17 17 -40 17 q-23 0 -40 -17 q-17 -17 -17 -40 ZM443 45 q0 -23 17 -38.5 q17 -15.5 40 -15.5 q23 0 40 15.5 q17 15.5 17 38.5 q0 23 -17 40 q-17 17 -40 17 q-23 0 -40 -17 q-17 -17 -17 -40 ZM110 45 q0 -23 17 -38.5 q17 -15.5 40 -15.5 q23 0 40 15.5 q17 15.5 17 38.5 q0 23 -17 40 q-17 17 -40 17 q-23 0 -40 -17 q-17 -17 -17 -40 Z" /></font>
</defs>
</svg>
